<svg width="23" height="24" viewBox="0 0 23 24" fill="none" xmlns="http://www.w3.org/2000/svg">
<path d="M21.8507 22.1333C21.8507 22.2718 21.7384 22.384 21.6 22.384H14.08C13.9416 22.384 13.8293 22.2718 13.8293 22.1333V17.12C13.8293 16.9816 13.9416 16.8693 14.08 16.8693H21.6C21.7384 16.8693 21.8507 16.9816 21.8507 17.12V22.1333ZM9.31734 22.1333C9.31734 22.2718 9.20511 22.384 9.06667 22.384H1.54667C1.40823 22.384 1.296 22.2718 1.296 22.1333V12.1067C1.296 11.9682 1.40823 11.856 1.54667 11.856H9.06667C9.20511 11.856 9.31734 11.9682 9.31734 12.1067V22.1333ZM21.8507 12.1067C21.8507 12.2451 21.7384 12.3573 21.6 12.3573H14.08C13.9416 12.3573 13.8293 12.2451 13.8293 12.1067V2.07999C13.8293 1.94155 13.9416 1.82933 14.08 1.82933H21.6C21.7384 1.82933 21.8507 1.94155 21.8507 2.07999V12.1067ZM9.31734 7.09333C9.31734 7.23177 9.20511 7.34399 9.06667 7.34399H1.54667C1.40823 7.34399 1.296 7.23177 1.296 7.09333V2.07999C1.296 1.94155 1.40823 1.82933 1.54667 1.82933H9.06667C9.20511 1.82933 9.31734 1.94155 9.31734 2.07999V7.09333Z" stroke="white" stroke-width="2.00533"/>
</svg>
