<svg width="18" height="18" viewBox="0 0 18 18" fill="none" xmlns="http://www.w3.org/2000/svg">
<path d="M2.68756 9.09772L2.6901 9.1098C3.05208 10.8283 4.21027 12.3038 5.8494 13.0488L9.19828 14.571V12.7777H11.092C13.7068 12.7777 15.8264 10.658 15.8264 8.04327V7.0964C15.8264 4.48167 13.7068 2.36201 11.092 2.36201H7.30453C4.6898 2.36201 2.57014 4.48167 2.57014 7.0964V8.04327C2.57014 8.40344 2.61002 8.75202 2.68486 9.08568L2.68756 9.09772ZM11.092 17.512L5.06575 14.7728C2.87112 13.7753 1.32147 11.8002 0.837009 9.50012C0.731869 9.03134 0.676392 8.54378 0.676392 8.04327V7.0964C0.676392 3.43578 3.64391 0.468262 7.30453 0.468262H11.092C14.7526 0.468262 17.7202 3.43578 17.7202 7.0964V8.04327C17.7202 11.7039 14.7526 14.6714 11.092 14.6714V17.512Z" fill="white"/>
</svg>
