<svg width="48" height="48" viewBox="0 0 48 48" fill="none" xmlns="http://www.w3.org/2000/svg">
<rect width="48" height="48" fill="#45EF29"/>
<path d="M24 45.5C35.8741 45.5 45.5 35.8741 45.5 24C45.5 12.1259 35.8741 2.5 24 2.5C12.1259 2.5 2.5 12.1259 2.5 24C2.5 35.8741 12.1259 45.5 24 45.5Z" stroke="black" stroke-linecap="round" stroke-linejoin="round"/>
<path d="M32.6899 27.7499C32.4572 29.13 31.8626 30.4236 30.9666 31.4988C30.0706 32.5739 28.9054 33.3921 27.5899 33.8699C25.6139 34.5852 23.4348 34.4879 21.5304 33.5994C19.6259 32.7109 18.1514 31.1037 17.4299 29.1299L15.6699 24.2899C14.9546 22.3138 15.0519 20.1348 15.9403 18.2303C16.8288 16.3259 18.4361 14.8513 20.4099 14.1299C22.3859 13.4146 24.565 13.5118 26.4694 14.4003C28.3739 15.2888 29.8484 16.8961 30.5699 18.8699L31.4499 21.2899L16.5499 26.7099M45.4999 23.9999H37.4999" stroke="black" stroke-linecap="round" stroke-linejoin="round"/>
</svg>
