<svg width="31" height="31" viewBox="0 0 31 31" fill="none" xmlns="http://www.w3.org/2000/svg">
<path d="M4.29333 22.9866V15.4666C4.29334 12.475 5.48176 9.60589 7.59717 7.49048C9.71258 5.37507 12.5817 4.18665 15.5733 4.18665C18.565 4.18665 21.4341 5.37507 23.5495 7.49048C25.6649 9.60589 26.8533 12.475 26.8533 15.4666V22.9866" stroke="white" stroke-width="2.50667" stroke-linecap="round" stroke-linejoin="round"/>
<path d="M26.8533 24.2399C26.8533 24.9047 26.5892 25.5423 26.1191 26.0124C25.6491 26.4825 25.0115 26.7466 24.3467 26.7466H23.0933C22.4285 26.7466 21.7909 26.4825 21.3209 26.0124C20.8508 25.5423 20.5867 24.9047 20.5867 24.2399V20.4799C20.5867 19.8151 20.8508 19.1775 21.3209 18.7075C21.7909 18.2374 22.4285 17.9733 23.0933 17.9733H26.8533V24.2399ZM4.29333 24.2399C4.29333 24.9047 4.55743 25.5423 5.02752 26.0124C5.49761 26.4825 6.13519 26.7466 6.8 26.7466H8.05333C8.71814 26.7466 9.35572 26.4825 9.82582 26.0124C10.2959 25.5423 10.56 24.9047 10.56 24.2399V20.4799C10.56 19.8151 10.2959 19.1775 9.82582 18.7075C9.35572 18.2374 8.71814 17.9733 8.05333 17.9733H4.29333V24.2399Z" stroke="white" stroke-width="2.50667" stroke-linecap="round" stroke-linejoin="round"/>
</svg>
