<svg width="26" height="23" viewBox="0 0 26 23" fill="none" xmlns="http://www.w3.org/2000/svg">
<path d="M12.9812 22.582C12.1989 21.8882 11.3147 21.1665 10.3795 20.3988H10.3674C7.07442 17.7062 3.34238 14.6594 1.69406 11.0086C1.15253 9.84633 0.865548 8.58177 0.852309 7.2996C0.848692 5.54029 1.55431 3.85378 2.80969 2.62122C4.06507 1.38866 5.76425 0.714113 7.52319 0.750021C8.95516 0.752283 10.3563 1.16614 11.5597 1.94229C12.0885 2.2855 12.5669 2.70065 12.9812 3.17579C13.3978 2.70251 13.8763 2.2876 14.4039 1.94229C15.6068 1.16599 17.0075 0.752105 18.4392 0.750021C20.1981 0.714113 21.8973 1.38866 23.1527 2.62122C24.408 3.85378 25.1137 5.54029 25.11 7.2996C25.0977 8.58382 24.8107 9.85053 24.2683 11.0147C22.62 14.6655 18.8891 17.711 15.5962 20.3988L15.584 20.4085C14.6477 21.1714 13.7647 21.893 12.9824 22.5917L12.9812 22.582ZM7.52319 3.17579C6.3934 3.16165 5.3037 3.59405 4.49098 4.37897C3.70792 5.14814 3.27028 6.20199 3.27799 7.2996C3.29183 8.23413 3.50348 9.15513 3.89909 10.0019C4.67717 11.5771 5.72704 13.0026 7.00044 14.213C8.20241 15.4259 9.5851 16.6 10.781 17.5873C11.1121 17.8602 11.4493 18.1355 11.7865 18.4108L11.9987 18.5843C12.3226 18.8487 12.6573 19.1228 12.9812 19.3921L12.9969 19.3775L13.0042 19.3714H13.0115L13.0224 19.363H13.0285H13.0345L13.0564 19.3448L13.1061 19.3047L13.1146 19.2975L13.1279 19.2878H13.1352L13.1461 19.2781L13.9515 18.617L14.1625 18.4436C14.5033 18.1658 14.8405 17.8905 15.1716 17.6176C16.3675 16.6303 17.7515 15.4575 18.9534 14.2385C20.227 13.0287 21.2769 11.6035 22.0548 10.0286C22.4575 9.17448 22.6722 8.24384 22.6843 7.2996C22.6893 6.20538 22.2519 5.15557 21.4714 4.38868C20.6602 3.6002 19.5703 3.16425 18.4392 3.17579C17.0588 3.16406 15.7392 3.74266 14.8126 4.76588L12.9812 6.8763L11.1497 4.76588C10.2232 3.74266 8.90355 3.16406 7.52319 3.17579Z" fill="#7A8580"/>
</svg>
