<svg width="26" height="24" viewBox="0 0 26 24" fill="none" xmlns="http://www.w3.org/2000/svg">
<path d="M12.5734 23.0668C11.765 22.3499 10.8513 21.6041 9.885 20.8108H9.87247C6.46967 18.0284 2.61316 14.88 0.909881 11.1075C0.35029 9.90644 0.053734 8.59971 0.0400534 7.27478C0.0363162 5.4568 0.76546 3.71404 2.06271 2.44038C3.35995 1.16672 5.1158 0.469675 6.9334 0.50678C8.41312 0.509117 9.86098 0.936775 11.1045 1.73881C11.6509 2.09346 12.1453 2.52246 12.5734 3.01345C13.0039 2.52439 13.4984 2.09564 14.0436 1.73881C15.2865 0.936617 16.734 0.508934 18.2134 0.50678C20.031 0.469675 21.7868 1.16672 23.0841 2.44038C24.3813 3.71404 25.1105 5.4568 25.1067 7.27478C25.094 8.60183 24.7974 9.91078 24.2369 11.1137C22.5336 14.8863 18.6784 18.0334 15.2756 20.8108L15.2631 20.8208C14.2955 21.6092 13.3831 22.3549 12.5747 23.0768L12.5734 23.0668ZM6.9334 3.01345C5.76593 2.99884 4.63989 3.44565 3.80007 4.25675C2.9909 5.05157 2.53866 6.14057 2.54663 7.27478C2.56093 8.24047 2.77964 9.19219 3.18844 10.0672C3.99247 11.6949 5.07735 13.168 6.39321 14.4188C7.63527 15.6721 9.06407 16.8853 10.2999 17.9056C10.642 18.1876 10.9904 18.4721 11.3389 18.7566L11.5582 18.9358C11.8928 19.209 12.2388 19.4923 12.5734 19.7705L12.5897 19.7555L12.5972 19.7492H12.6047L12.616 19.7404H12.6223H12.6285L12.6511 19.7216L12.7025 19.6803L12.7113 19.6728L12.7251 19.6627H12.7326L12.7439 19.6527L13.5761 18.9696L13.7941 18.7904C14.1463 18.5034 14.4948 18.2189 14.8369 17.9369C16.0727 16.9167 17.5028 15.7047 18.7448 14.4451C20.0609 13.195 21.1458 11.7223 21.9496 10.0948C22.3658 9.21218 22.5876 8.25051 22.6001 7.27478C22.6053 6.14407 22.1533 5.05925 21.3467 4.26678C20.5085 3.45201 19.3823 3.00152 18.2134 3.01345C16.787 3.00133 15.4234 3.59922 14.4659 4.65657L12.5734 6.83737L10.6809 4.65657C9.7234 3.59922 8.35979 3.00133 6.9334 3.01345Z" fill="white"/>
</svg>
