<svg width="25" height="25" viewBox="0 0 25 25" fill="none" xmlns="http://www.w3.org/2000/svg">
<g opacity="0.7">
<rect x="0.82666" y="0.768066" width="23.8266" height="23.8266" rx="1.98555" fill="white"/>
<g clip-path="url(#clip0_1_1796)">
<path d="M18.4917 9.86652C18.363 9.22663 18.0424 8.64115 17.5725 8.18808C17.1027 7.73501 16.506 7.43585 15.8618 7.33048C15.3778 7.25333 14.8826 7.28913 14.4148 7.43509C13.9469 7.58105 13.5192 7.8332 13.1649 8.17185C13.0496 8.27909 12.898 8.3387 12.7405 8.3387C12.5831 8.3387 12.4314 8.27909 12.3161 8.17185C11.728 7.60297 10.9432 7.28263 10.125 7.27741C9.30674 7.27219 8.51797 7.58249 7.92261 8.14381C7.32725 8.70514 6.9711 9.47431 6.92821 10.2914C6.88531 11.1086 7.15896 11.9108 7.69227 12.5314L12.0972 17.7807C12.176 17.8745 12.2745 17.9499 12.3855 18.0016C12.4966 18.0533 12.6176 18.0802 12.7402 18.0802C12.8627 18.0802 12.9837 18.0533 13.0948 18.0016C13.2059 17.9499 13.3043 17.8745 13.3831 17.7807L17.788 12.5314C18.0995 12.1698 18.3247 11.7421 18.4466 11.2807C18.5685 10.8193 18.5839 10.3362 18.4917 9.86801V9.86652Z" fill="#EE4950"/>
</g>
</g>
<defs>
<clipPath id="clip0_1_1796">
<rect width="11.9133" height="11.9133" fill="white" transform="translate(6.78345 6.72461)"/>
</clipPath>
</defs>
</svg>
