<svg width="12" height="20" viewBox="0 0 12 20" fill="none" xmlns="http://www.w3.org/2000/svg">
<path d="M2.48779 4.2495C2.48779 3.34478 2.84719 2.47712 3.48692 1.83739C4.12665 1.19765 4.99432 0.838257 5.89903 0.838257C6.80375 0.838257 7.67141 1.19765 8.31114 1.83739C8.95087 2.47712 9.31027 3.34478 9.31027 4.2495V9.9349C9.31027 10.8396 8.95087 11.7073 8.31114 12.347C7.67141 12.9867 6.80375 13.3461 5.89903 13.3461C4.99432 13.3461 4.12665 12.9867 3.48692 12.347C2.84719 11.7073 2.48779 10.8396 2.48779 9.9349V4.2495Z" fill="#272727"/>
<path d="M0.782163 8.22937C0.932949 8.22937 1.07756 8.28927 1.18418 8.39589C1.2908 8.50251 1.3507 8.64712 1.3507 8.79791V9.93499C1.3507 11.1413 1.8299 12.2982 2.68287 13.1511C3.53585 14.0041 4.69273 14.4833 5.89902 14.4833C7.10531 14.4833 8.26219 14.0041 9.11517 13.1511C9.96814 12.2982 10.4473 11.1413 10.4473 9.93499V8.79791C10.4473 8.64712 10.5072 8.50251 10.6139 8.39589C10.7205 8.28927 10.8651 8.22937 11.0159 8.22937C11.1667 8.22937 11.3113 8.28927 11.4179 8.39589C11.5245 8.50251 11.5844 8.64712 11.5844 8.79791V9.93499C11.5844 11.3444 11.0609 12.7036 10.1154 13.7489C9.16997 14.7942 7.86994 15.451 6.46756 15.592V17.8945H9.8788C10.0296 17.8945 10.1742 17.9544 10.2808 18.0611C10.3874 18.1677 10.4473 18.3123 10.4473 18.4631C10.4473 18.6139 10.3874 18.7585 10.2808 18.8651C10.1742 18.9717 10.0296 19.0316 9.8788 19.0316H1.91924C1.76846 19.0316 1.62385 18.9717 1.51722 18.8651C1.4106 18.7585 1.3507 18.6139 1.3507 18.4631C1.3507 18.3123 1.4106 18.1677 1.51722 18.0611C1.62385 17.9544 1.76846 17.8945 1.91924 17.8945H5.33048V15.592C3.9281 15.451 2.62807 14.7942 1.68259 13.7489C0.737117 12.7036 0.213605 11.3444 0.213623 9.93499V8.79791C0.213623 8.64712 0.273523 8.50251 0.380145 8.39589C0.486767 8.28927 0.631377 8.22937 0.782163 8.22937Z" fill="#272727"/>
</svg>
