<svg width="25" height="26" viewBox="0 0 25 26" fill="none" xmlns="http://www.w3.org/2000/svg">
<rect x="0.956299" width="23.9133" height="25.9133" rx="1.98555" fill="white"/>
<g clip-path="url(#clip0_1_1789)">
<path d="M18.7964 13.3982C18.7964 13.5463 18.7376 13.6884 18.6329 13.7931C18.5281 13.8978 18.3861 13.9566 18.238 13.9566H13.9566V18.238C13.9566 18.3861 13.8978 18.5281 13.7931 18.6329C13.6884 18.7376 13.5463 18.7964 13.3982 18.7964C13.2501 18.7964 13.1081 18.7376 13.0033 18.6329C12.8986 18.5281 12.8398 18.3861 12.8398 18.238V13.9566H8.55844C8.41033 13.9566 8.26829 13.8978 8.16356 13.7931C8.05884 13.6884 8 13.5463 8 13.3982C8 13.2501 8.05884 13.1081 8.16356 13.0033C8.26829 12.8986 8.41033 12.8398 8.55844 12.8398H12.8398V8.55844C12.8398 8.41033 12.8986 8.26829 13.0033 8.16356C13.1081 8.05884 13.2501 8 13.3982 8C13.5463 8 13.6884 8.05884 13.7931 8.16356C13.8978 8.26829 13.9566 8.41033 13.9566 8.55844V12.8398H18.238C18.3861 12.8398 18.5281 12.8986 18.6329 13.0033C18.7376 13.1081 18.7964 13.2501 18.7964 13.3982Z" fill="#EE4950"/>
</g>
<defs>
<clipPath id="clip0_1_1789">
<rect width="11.9133" height="11.9133" fill="white" transform="translate(6.9563 7)"/>
</clipPath>
</defs>
</svg>
