<svg width="19" height="20" viewBox="0 0 19 20" fill="none" xmlns="http://www.w3.org/2000/svg">
<path d="M0.105442 19.0899C0.105442 19.4167 0.370399 19.6817 0.69724 19.6817H5.18699C5.71415 19.6817 5.97822 19.0444 5.60555 18.6715L4.60822 17.6737C4.37723 17.4426 4.37725 17.068 4.60826 16.8369L7.47517 13.9691C7.70622 13.738 7.70619 13.3633 7.4751 13.1322L6.64303 12.3002C6.41194 12.0691 6.03729 12.0691 5.80617 12.3001L2.93834 15.167C2.70726 15.398 2.33268 15.398 2.10158 15.1671L1.1156 14.1816C0.742747 13.8089 0.105442 14.073 0.105442 14.6001V19.0899ZM17.3735 19.6817C17.3739 19.6817 17.3742 19.6815 17.3745 19.6812L18.6247 18.4311C18.8557 18.2 18.8558 17.8255 18.6248 17.5943L4.61881 3.57714C4.38786 3.346 4.38793 2.97142 4.61898 2.74038L5.60495 1.7544C5.97777 1.38159 5.71373 0.744141 5.18649 0.744141H0.697239C0.370398 0.744141 0.105442 1.0091 0.105442 1.33594V5.82519C0.105442 6.35243 0.742892 6.61647 1.1157 6.24365L2.10166 5.2577C2.33272 5.02664 2.70731 5.02657 2.93844 5.25754L17.3725 19.6812C17.3728 19.6815 17.3731 19.6817 17.3735 19.6817V19.6817ZM12.5053 8.11669C12.7367 8.3464 13.1102 8.34574 13.3408 8.11521L18.6245 2.83147C18.8556 2.60036 18.8556 2.22566 18.6245 1.99455L17.7922 1.1622C17.5612 0.931247 17.1868 0.931066 16.9556 1.1618L11.6638 6.44338C11.4318 6.67501 11.4322 7.05117 11.6649 7.28219L12.5053 8.11669Z" fill="white"/>
</svg>
