<svg width="22" height="23" viewBox="0 0 22 23" fill="none" xmlns="http://www.w3.org/2000/svg">
<path d="M16.5857 21.6201C16.5857 22.1474 17.2231 22.4114 17.5959 22.0386L20.9016 18.7329C21.1327 18.5018 21.1327 18.1271 20.9016 17.896L17.5959 14.5904C17.2231 14.2175 16.5857 14.4816 16.5857 15.0088V16.5391C16.5857 16.8659 16.3207 17.1309 15.9939 17.1309H5.34153C5.01469 17.1309 4.74973 16.8659 4.74973 16.5391V12.9883C4.74973 12.6615 4.48478 12.3965 4.15793 12.3965H2.97434C2.6475 12.3965 2.38254 12.6615 2.38254 12.9883V18.3145C2.38254 18.9682 2.91246 19.4981 3.56614 19.4981H15.9939C16.3207 19.4981 16.5857 19.763 16.5857 20.0899V21.6201ZM16.5857 9.43751C16.5857 9.76435 16.8506 10.0293 17.1775 10.0293H18.3611C18.6879 10.0293 18.9529 9.76436 18.9529 9.43751V4.11133C18.9529 3.45765 18.423 2.92774 17.7693 2.92774H5.34153C5.01469 2.92774 4.74973 2.66278 4.74973 2.33594V0.805678C4.74973 0.278443 4.11228 0.0144033 3.73947 0.387215L0.433815 3.69287C0.202704 3.92398 0.202704 4.29869 0.433815 4.5298L3.73947 7.83545C4.11228 8.20827 4.74973 7.94423 4.74973 7.41699V5.88673C4.74973 5.55989 5.01469 5.29493 5.34153 5.29493H15.9939C16.3207 5.29493 16.5857 5.55989 16.5857 5.88673V9.43751Z" fill="white"/>
</svg>
