<svg width="33" height="32" viewBox="0 0 33 32" fill="none" xmlns="http://www.w3.org/2000/svg">
<g clip-path="url(#clip0_1_1776)">
<path d="M13.4139 0.0224609V4.56086L11.1447 5.69546L7.74095 2.29166L3.20255 6.83006L6.60635 10.2339L5.47175 12.5031H0.93335V19.3107H5.47175L6.60635 21.5799L3.20255 24.9836L7.74095 29.522L11.1447 26.1182L13.4139 27.2528V31.7912H20.2215V27.2528L22.4907 26.1182L25.8945 29.522L30.4329 24.9836L27.0291 21.5799L28.1637 19.3107H32.7021V12.5031H28.1637L27.0291 10.2339L30.4329 6.83006L25.8945 2.29166L22.4907 5.69546L20.2215 4.56086V0.0224609H13.4139Z" stroke="white" stroke-width="1.98555" stroke-linecap="round" stroke-linejoin="round"/>
<path d="M16.8177 20.4454C19.3242 20.4454 21.3561 18.4135 21.3561 15.9071C21.3561 13.4006 19.3242 11.3687 16.8177 11.3687C14.3112 11.3687 12.2793 13.4006 12.2793 15.9071C12.2793 18.4135 14.3112 20.4454 16.8177 20.4454Z" stroke="white" stroke-width="1.98555" stroke-linecap="round" stroke-linejoin="round"/>
</g>
<defs>
<clipPath id="clip0_1_1776">
<rect width="31.7688" height="31.7688" fill="white" transform="translate(0.93335 0.0224609)"/>
</clipPath>
</defs>
</svg>
