<svg width="21" height="6" viewBox="0 0 21 6" fill="none" xmlns="http://www.w3.org/2000/svg">
<path d="M17.5881 5.09177C16.2483 5.09177 15.1623 4.00572 15.1623 2.666C15.1623 1.32629 16.2483 0.240234 17.5881 0.240234C18.9278 0.240234 20.0138 1.32629 20.0138 2.666C20.0138 3.30936 19.7583 3.92636 19.3033 4.38128C18.8484 4.8362 18.2314 5.09177 17.5881 5.09177ZM10.3107 5.09177C8.97103 5.09177 7.88498 4.00572 7.88498 2.666C7.88498 1.32629 8.97103 0.240234 10.3107 0.240234C11.6505 0.240234 12.7365 1.32629 12.7365 2.666C12.7365 3.30936 12.4809 3.92636 12.026 4.38128C11.5711 4.8362 10.9541 5.09177 10.3107 5.09177ZM3.03344 5.09177C1.69372 5.09177 0.607666 4.00572 0.607666 2.666C0.607666 1.32629 1.69372 0.240234 3.03344 0.240234C4.37315 0.240234 5.45921 1.32629 5.45921 2.666C5.45921 3.30936 5.20363 3.92636 4.74871 4.38128C4.29379 4.8362 3.67679 5.09177 3.03344 5.09177Z" fill="#7A8580"/>
</svg>
